<svg width="621" height="232" viewBox="0 0 621 232" fill="none" xmlns="http://www.w3.org/2000/svg">
<g filter="url(#filter0_d_21_28)">
<line x1="5" y1="95" x2="68" y2="95" stroke="white" stroke-width="8"/>
<path d="M39.07 80.51V61.89L34.52 62.31V84.22L22.48 85.27L15.48 81.77V28.57L27.52 27.52L34.52 31.02V46.77L39.07 46.35V27.24L51.18 26.12L58.18 29.62V82.89L46.07 83.94L39.07 80.51ZM39.77 27.87V46.98L26.82 48.1V28.29L16.18 29.2V81L26.82 80.16V58.18L39.77 57.06V79.74L50.48 78.76V26.89L39.77 27.87Z" fill="white"/>
</g>
<g filter="url(#filter1_d_21_28)">
<line x1="93" y1="95" x2="156" y2="95" stroke="white" stroke-width="8"/>
<path d="M127.98 80.16L125.39 71.83L119.86 72.32L116.43 84.57L104.53 85.62L97.53 82.12L112.86 27.45L124.41 26.47L131.41 29.97L147.02 82.68L134.98 83.66L127.98 80.16ZM113.42 28.15L98.58 81.28L108.8 80.44L112.3 68.19L124.76 67.07L128.47 79.46L139.04 78.55L123.85 27.24L113.42 28.15ZM114.75 57.97C115.637 55.0767 116.36 52.3233 116.92 49.71C117.527 47.0967 118.04 44.4833 118.46 41.87H118.74C119.113 44.4367 119.58 46.9567 120.14 49.43C120.747 51.8567 121.47 54.47 122.31 57.27L114.75 57.97Z" fill="white"/>
</g>
<g filter="url(#filter2_d_21_28)">
<line x1="181" y1="95" x2="244" y2="95" stroke="white" stroke-width="8"/>
<path d="M215.77 80.37L210.52 68.54V84.22L198.48 85.27L191.48 81.77V28.57L202.82 27.59L209.82 31.09L215 42.29V27.24L227.18 26.12L234.18 29.62V82.89L222.77 83.87L215.77 80.37ZM215.7 27.87V47.47C215.7 47.9833 215.723 48.8233 215.77 49.99C215.817 51.11 215.863 52.3 215.91 53.56C216.003 54.7733 216.073 55.8233 216.12 56.71C216.167 57.55 216.19 57.97 216.19 57.97L215.98 58.11C215.98 58.11 215.91 57.8533 215.77 57.34C215.677 56.8267 215.513 56.22 215.28 55.52C215.047 54.7733 214.79 54.0967 214.51 53.49L202.4 28.36L192.18 29.2V81L202.82 80.16V61.82C202.82 61.26 202.797 60.3033 202.75 58.95C202.703 57.5967 202.657 56.1733 202.61 54.68C202.61 53.1867 202.587 51.9267 202.54 50.9C202.493 49.8267 202.47 49.29 202.47 49.29L202.68 49.22C202.68 49.22 202.797 49.6867 203.03 50.62C203.31 51.5067 203.683 52.44 204.15 53.42L216.4 79.67L226.48 78.76V26.89L215.7 27.87Z" fill="white"/>
</g>
<g filter="url(#filter3_d_21_28)">
<line x1="269" y1="95" x2="332" y2="95" stroke="white" stroke-width="8"/>
<path d="M324.14 73.02C322.74 76.2867 320.477 79.04 317.35 81.28C314.27 83.52 310.467 84.8267 305.94 85.2C305.52 85.2467 305.1 85.27 304.68 85.27C304.26 85.27 303.84 85.27 303.42 85.27C299.92 85.27 296.583 84.6633 293.41 83.45C290.283 82.2367 287.507 80.4167 285.08 77.99C282.653 75.5167 280.74 72.39 279.34 68.61C277.94 64.83 277.24 60.35 277.24 55.17C277.24 51.2033 277.73 47.4933 278.71 44.04C279.69 40.54 281.113 37.4367 282.98 34.73C284.893 32.0233 287.203 29.8533 289.91 28.22C292.617 26.5867 295.673 25.63 299.08 25.35C299.36 25.3033 299.64 25.28 299.92 25.28C300.2 25.28 300.48 25.28 300.76 25.28C304.167 25.28 307.48 26.05 310.7 27.59C313.967 29.13 316.813 31.23 319.24 33.89C321.713 36.55 323.463 39.56 324.49 42.92L316.16 47.61L317.14 47.54L324.14 51.04V73.02ZM295.65 50.06V60L306.43 59.09V65.11C305.823 66.3233 304.843 67.3733 303.49 68.26C302.183 69.1 300.807 69.5667 299.36 69.66C299.173 69.7067 298.963 69.73 298.73 69.73C298.543 69.73 298.333 69.73 298.1 69.73C295.067 69.73 292.78 68.5167 291.24 66.09C289.7 63.6633 288.93 59.72 288.93 54.26C288.93 49.3133 289.723 45.37 291.31 42.43C292.897 39.49 295.44 37.88 298.94 37.6H299.71C301.623 37.6 303.257 38.16 304.61 39.28C306.01 40.4 307.013 42.0333 307.62 44.18L316.65 39.07C315.857 36.83 314.76 34.73 313.36 32.77C312.007 30.7633 310.303 29.13 308.25 27.87C306.197 26.61 303.7 25.98 300.76 25.98C300.527 25.98 300.27 25.98 299.99 25.98C299.71 25.98 299.43 26.0033 299.15 26.05C294.717 26.4233 290.913 27.9633 287.74 30.67C284.567 33.33 282.14 36.8067 280.46 41.1C278.78 45.3467 277.94 50.0367 277.94 55.17C277.94 60.49 278.71 65.0867 280.25 68.96C281.79 72.8333 283.983 75.82 286.83 77.92C289.677 80.02 293.06 81.07 296.98 81.07C297.307 81.07 297.61 81.07 297.89 81.07C298.217 81.07 298.543 81.0467 298.87 81C303.257 80.6267 306.943 79.39 309.93 77.29C312.963 75.1433 315.157 72.5067 316.51 69.38V48.31L295.65 50.06ZM307.2 45.23C307.013 44.5767 306.803 43.97 306.57 43.41C306.337 42.8033 306.08 42.2667 305.8 41.8C303.7 41.9867 301.973 42.7333 300.62 44.04C299.313 45.3 298.333 47.0267 297.68 49.22L312.8 47.96L307.2 45.23ZM302.3 64.41L296.84 61.61C296.933 63.4767 297.12 64.9467 297.4 66.02C297.727 67.0467 298.193 68.05 298.8 69.03C298.94 68.9833 299.103 68.96 299.29 68.96C300.503 68.8667 301.717 68.4933 302.93 67.84C304.143 67.14 305.077 66.3233 305.73 65.39V63.99L302.3 64.41Z" fill="white"/>
</g>
<g filter="url(#filter4_d_21_28)">
<line x1="357" y1="95" x2="420" y2="95" stroke="white" stroke-width="8"/>
<path d="M404.23 81.63L403.46 84.01L391.49 85.06L385.54 82.12V84.85L374.48 85.83L367.48 82.33V29.13L381.2 27.87L388.2 31.37L393.8 52.23L400.24 27.59L413.89 26.47L420.89 29.97V83.24L409.27 84.15L404.23 81.63ZM400.8 28.29L391.91 62.59C391.77 63.15 391.63 63.8033 391.49 64.55C391.35 65.25 391.233 65.88 391.14 66.44C391.047 67 391 67.28 391 67.28L390.72 67.35C390.72 67.35 390.673 67.07 390.58 66.51C390.533 65.95 390.44 65.2967 390.3 64.55C390.207 63.8033 390.09 63.1733 389.95 62.66L380.64 28.64L368.18 29.76V81.56L377.84 80.79V58.39C377.84 57.41 377.817 56.3833 377.77 55.31C377.723 54.19 377.677 53.2567 377.63 52.51C377.583 51.7633 377.56 51.39 377.56 51.39L377.7 51.32C377.793 51.9733 377.91 52.79 378.05 53.77C378.237 54.7033 378.423 55.6133 378.61 56.5C378.843 57.34 379.007 57.9933 379.1 58.46L384.98 80.86L395.83 79.88L401.57 58.39C401.85 57.3167 402.107 56.1967 402.34 55.03C402.573 53.8167 402.76 52.79 402.9 51.95C403.04 51.11 403.11 50.69 403.11 50.69L403.25 50.76C403.25 50.76 403.227 51.18 403.18 52.02C403.133 52.86 403.087 53.84 403.04 54.96C402.993 56.08 402.97 57.0833 402.97 57.97V79.95L413.19 79.11V27.24L400.8 28.29Z" fill="white"/>
</g>
<g filter="url(#filter5_d_21_28)">
<line x1="445" y1="95" x2="508" y2="95" stroke="white" stroke-width="8"/>
<path d="M479.98 80.16L477.39 71.83L471.86 72.32L468.43 84.57L456.53 85.62L449.53 82.12L464.86 27.45L476.41 26.47L483.41 29.97L499.02 82.68L486.98 83.66L479.98 80.16ZM465.42 28.15L450.58 81.28L460.8 80.44L464.3 68.19L476.76 67.07L480.47 79.46L491.04 78.55L475.85 27.24L465.42 28.15ZM466.75 57.97C467.637 55.0767 468.36 52.3233 468.92 49.71C469.527 47.0967 470.04 44.4833 470.46 41.87H470.74C471.113 44.4367 471.58 46.9567 472.14 49.43C472.747 51.8567 473.47 54.47 474.31 57.27L466.75 57.97Z" fill="white"/>
</g>
<g filter="url(#filter6_d_21_28)">
<line x1="533" y1="95" x2="596" y2="95" stroke="white" stroke-width="8"/>
<path d="M567.77 80.37L562.52 68.54V84.22L550.48 85.27L543.48 81.77V28.57L554.82 27.59L561.82 31.09L567 42.29V27.24L579.18 26.12L586.18 29.62V82.89L574.77 83.87L567.77 80.37ZM567.7 27.87V47.47C567.7 47.9833 567.723 48.8233 567.77 49.99C567.817 51.11 567.863 52.3 567.91 53.56C568.003 54.7733 568.073 55.8233 568.12 56.71C568.167 57.55 568.19 57.97 568.19 57.97L567.98 58.11C567.98 58.11 567.91 57.8533 567.77 57.34C567.677 56.8267 567.513 56.22 567.28 55.52C567.047 54.7733 566.79 54.0967 566.51 53.49L554.4 28.36L544.18 29.2V81L554.82 80.16V61.82C554.82 61.26 554.797 60.3033 554.75 58.95C554.703 57.5967 554.657 56.1733 554.61 54.68C554.61 53.1867 554.587 51.9267 554.54 50.9C554.493 49.8267 554.47 49.29 554.47 49.29L554.68 49.22C554.68 49.22 554.797 49.6867 555.03 50.62C555.31 51.5067 555.683 52.44 556.15 53.42L568.4 79.67L578.48 78.76V26.89L567.7 27.87Z" fill="white"/>
</g>
<g filter="url(#filter7_d_21_28)">
<line x1="93" y1="219" x2="156" y2="219" stroke="white" stroke-width="8"/>
<path d="M133.58 205.07L131.55 195.2L128.75 208.36L117.06 209.34L110.06 205.84L99 153.55L111.67 152.5L118.67 156L120.21 164.26L122.73 152.15L133.86 151.24L140.58 154.74L142.75 165.31L145.48 150.82L156.82 149.84L163.82 153.34L153.04 207.59L140.58 208.64L133.58 205.07ZM146.04 151.52L140.58 181.2C140.533 181.62 140.463 182.157 140.37 182.81C140.323 183.463 140.277 184.07 140.23 184.63C140.183 185.143 140.16 185.4 140.16 185.4H139.95C139.95 185.4 139.927 185.143 139.88 184.63C139.833 184.117 139.763 183.533 139.67 182.88C139.577 182.18 139.483 181.643 139.39 181.27L133.23 152.01L123.29 152.85L117.83 180.22C117.737 180.78 117.62 181.503 117.48 182.39C117.34 183.277 117.223 184.093 117.13 184.84C117.083 185.54 117.06 185.89 117.06 185.89H116.85C116.85 185.89 116.827 185.563 116.78 184.91C116.733 184.21 116.64 183.417 116.5 182.53C116.407 181.597 116.29 180.78 116.15 180.08L111.04 153.27L99.84 154.25L110.62 205.07L121.12 204.23L127.14 176.23C127.233 175.763 127.327 175.063 127.42 174.13C127.56 173.15 127.653 172.24 127.7 171.4C127.793 170.56 127.84 170.14 127.84 170.14L128.05 170.07C128.05 170.07 128.073 170.49 128.12 171.33C128.213 172.123 128.307 173.01 128.4 173.99C128.54 174.923 128.657 175.623 128.75 176.09L134.14 204.44L145.41 203.46L155.91 150.68L146.04 151.52Z" fill="white"/>
</g>
<g filter="url(#filter8_d_21_28)">
<line x1="181" y1="219" x2="244" y2="219" stroke="white" stroke-width="8"/>
<path d="M218.29 209.34C217.963 209.387 217.613 209.41 217.24 209.41C216.913 209.41 216.587 209.41 216.26 209.41C213.833 209.41 211.593 209.06 209.54 208.36C207.533 207.707 205.573 206.937 203.66 206.05C198.667 203.577 195.003 200.1 192.67 195.62C190.383 191.093 189.24 185.727 189.24 179.52C189.24 175.88 189.683 172.357 190.57 168.95C191.503 165.497 192.88 162.393 194.7 159.64C196.52 156.84 198.783 154.553 201.49 152.78C204.243 151.007 207.463 149.957 211.15 149.63C211.523 149.583 211.873 149.56 212.2 149.56C212.527 149.56 212.853 149.56 213.18 149.56C215.513 149.56 217.59 149.863 219.41 150.47C221.23 151.03 223.073 151.683 224.94 152.43C228.3 153.783 231.1 155.79 233.34 158.45C235.58 161.11 237.26 164.237 238.38 167.83C239.5 171.377 240.06 175.18 240.06 179.24C240.06 183.02 239.617 186.637 238.73 190.09C237.843 193.543 236.49 196.67 234.67 199.47C232.897 202.223 230.633 204.463 227.88 206.19C225.173 207.963 221.977 209.013 218.29 209.34ZM211.22 205.14C214.813 204.86 217.94 203.88 220.6 202.2C223.26 200.473 225.453 198.257 227.18 195.55C228.907 192.797 230.19 189.74 231.03 186.38C231.917 182.973 232.36 179.427 232.36 175.74C232.36 172.38 231.963 169.183 231.17 166.15C230.423 163.07 229.257 160.34 227.67 157.96C226.083 155.58 224.077 153.713 221.65 152.36C219.27 150.96 216.447 150.26 213.18 150.26C212.853 150.26 212.527 150.26 212.2 150.26C211.92 150.26 211.593 150.283 211.22 150.33C207.627 150.657 204.5 151.683 201.84 153.41C199.18 155.09 196.963 157.307 195.19 160.06C193.417 162.767 192.087 165.8 191.2 169.16C190.36 172.473 189.94 175.927 189.94 179.52C189.94 183.02 190.337 186.333 191.13 189.46C191.923 192.54 193.113 195.27 194.7 197.65C196.287 199.983 198.293 201.827 200.72 203.18C203.147 204.533 205.97 205.21 209.19 205.21C209.563 205.21 209.913 205.21 210.24 205.21C210.567 205.21 210.893 205.187 211.22 205.14ZM211.22 194.29C211.033 194.29 210.847 194.313 210.66 194.36C210.52 194.36 210.357 194.36 210.17 194.36C207.37 194.36 205.153 193.147 203.52 190.72C201.933 188.293 201.14 184.233 201.14 178.54C201.14 174.48 201.583 171.213 202.47 168.74C203.357 166.267 204.57 164.447 206.11 163.28C207.65 162.067 209.353 161.39 211.22 161.25C211.407 161.25 211.593 161.25 211.78 161.25C211.967 161.203 212.153 161.18 212.34 161.18C215.093 161.18 217.24 162.37 218.78 164.75C220.32 167.083 221.09 171.097 221.09 176.79C221.09 182.857 220.157 187.243 218.29 189.95C216.47 192.61 214.113 194.057 211.22 194.29ZM211.01 193.59C213.763 193.357 216.003 191.957 217.73 189.39C219.503 186.823 220.39 182.623 220.39 176.79C220.39 174.13 220.227 171.867 219.9 170C219.573 168.133 219.083 166.617 218.43 165.45C218.197 165.403 217.963 165.38 217.73 165.38C217.497 165.333 217.263 165.31 217.03 165.31C214.277 165.31 212.223 166.757 210.87 169.65C209.517 172.497 208.84 176.627 208.84 182.04C208.84 184.747 209.027 187.057 209.4 188.97C209.773 190.837 210.31 192.377 211.01 193.59Z" fill="white"/>
</g>
<g filter="url(#filter9_d_21_28)">
<line x1="269" y1="219" x2="332" y2="219" stroke="white" stroke-width="8"/>
<path d="M303.49 204.3L298.52 195.34V208.08L286.48 209.13L279.48 205.63V152.43L297.05 150.89C297.423 150.843 297.773 150.82 298.1 150.82C298.473 150.82 298.823 150.82 299.15 150.82C301.857 150.82 304.47 151.24 306.99 152.08C309.51 152.92 311.773 154.157 313.78 155.79C315.787 157.423 317.373 159.407 318.54 161.74C319.707 164.027 320.29 166.64 320.29 169.58C320.29 177 317.583 182.343 312.17 185.61L324 206.68L310.49 207.8L303.49 204.3ZM304.19 181.83C307.083 180.243 309.207 178.143 310.56 175.53C311.913 172.917 312.59 169.767 312.59 166.08C312.59 161.74 311.377 158.24 308.95 155.58C306.57 152.873 303.21 151.52 298.87 151.52C298.59 151.52 298.31 151.52 298.03 151.52C297.75 151.52 297.447 151.543 297.12 151.59L280.18 153.06V204.93L290.82 204.02V185.54L293.83 185.26L303.84 203.6L315.81 202.55L304.19 181.83ZM290.82 162.23L295.44 161.81H296.21C297.75 161.81 299.033 162.277 300.06 163.21C301.133 164.097 301.67 165.66 301.67 167.9C301.67 170.233 301.11 172.053 299.99 173.36C298.87 174.62 297.353 175.343 295.44 175.53L290.82 175.95V162.23ZM298.52 173.78C300.153 172.613 300.97 170.653 300.97 167.9C300.97 167.573 300.947 167.27 300.9 166.99C300.9 166.71 300.877 166.43 300.83 166.15L298.52 166.36V173.78Z" fill="white"/>
</g>
<g filter="url(#filter10_d_21_28)">
<line x1="357" y1="219" x2="420" y2="219" stroke="white" stroke-width="8"/>
<path d="M367.48 205.84V152.64L382.04 151.38C382.647 151.333 383.23 151.31 383.79 151.31C384.35 151.263 384.863 151.24 385.33 151.24C387.897 151.24 390.183 151.543 392.19 152.15C394.243 152.757 396.483 153.643 398.91 154.81C402.177 156.303 404.837 158.147 406.89 160.34C408.943 162.487 410.46 165.147 411.44 168.32C412.42 171.447 412.91 175.273 412.91 179.8C412.91 185.727 411.907 190.72 409.9 194.78C407.94 198.84 405.233 201.967 401.78 204.16C398.327 206.307 394.337 207.59 389.81 208.01L374.48 209.34L367.48 205.84ZM382.74 203.88C387.127 203.507 391 202.247 394.36 200.1C397.767 197.953 400.427 194.897 402.34 190.93C404.253 186.963 405.21 182.087 405.21 176.3C405.21 168.367 403.507 162.323 400.1 158.17C396.74 154.017 391.747 151.94 385.12 151.94C384.653 151.94 384.163 151.963 383.65 152.01C383.137 152.01 382.623 152.033 382.11 152.08L368.18 153.27V205.07L382.74 203.88ZM378.75 162.65L380.78 162.51C381.293 162.463 381.76 162.44 382.18 162.44C382.647 162.393 383.113 162.37 383.58 162.37C386.007 162.37 387.99 162.813 389.53 163.7C391.117 164.587 392.283 166.103 393.03 168.25C393.823 170.397 394.22 173.407 394.22 177.28C394.22 182.787 393.077 186.823 390.79 189.39C388.503 191.91 385.4 193.333 381.48 193.66L378.75 193.87V162.65ZM386.45 191.7C388.83 190.673 390.603 189.017 391.77 186.73C392.937 184.397 393.52 181.247 393.52 177.28C393.52 172.333 392.82 168.787 391.42 166.64C391.233 166.593 391.047 166.57 390.86 166.57C390.673 166.57 390.487 166.57 390.3 166.57C389.88 166.57 389.46 166.593 389.04 166.64C388.667 166.64 388.27 166.663 387.85 166.71L386.45 166.78V191.7Z" fill="white"/>
</g>
<g filter="url(#filter11_d_21_28)">
<line x1="445" y1="219" x2="508" y2="219" stroke="white" stroke-width="8"/>
<path d="M477.11 168.04C476.97 167.48 476.83 166.967 476.69 166.5C476.55 166.033 476.41 165.59 476.27 165.17C475.243 165.45 474.403 165.94 473.75 166.64C473.097 167.34 472.77 168.133 472.77 169.02C472.77 169.813 472.863 170.467 473.05 170.98L475.01 171.54C477.39 172.24 479.793 173.127 482.22 174.2C484.647 175.227 486.863 176.487 488.87 177.98C490.923 179.427 492.58 181.153 493.84 183.16C495.1 185.12 495.73 187.36 495.73 189.88C495.73 195.62 494.12 200.17 490.9 203.53C487.727 206.89 483.223 208.827 477.39 209.34C477.017 209.387 476.62 209.41 476.2 209.41C475.827 209.457 475.453 209.48 475.08 209.48C473.307 209.48 471.487 209.223 469.62 208.71C467.753 208.243 465.84 207.497 463.88 206.47C461.593 205.21 459.68 203.973 458.14 202.76C456.6 201.5 455.34 199.96 454.36 198.14C453.427 196.32 452.633 193.963 451.98 191.07L463.67 186.59L470.67 190.09C470.95 191.303 471.277 192.353 471.65 193.24C474.497 192.82 475.92 191.397 475.92 188.97C475.92 188.597 475.873 188.27 475.78 187.99C475.733 187.663 475.663 187.36 475.57 187.08C475.57 187.08 475.29 186.917 474.73 186.59C474.17 186.263 473.657 186.053 473.19 185.96C468.663 184.84 464.907 183.51 461.92 181.97C458.98 180.43 456.787 178.47 455.34 176.09C453.94 173.71 453.24 170.7 453.24 167.06C453.24 163.98 453.963 161.18 455.41 158.66C456.857 156.093 458.863 154.017 461.43 152.43C464.043 150.797 467.03 149.84 470.39 149.56C470.81 149.513 471.207 149.49 471.58 149.49C472 149.443 472.397 149.42 472.77 149.42C474.87 149.42 476.713 149.7 478.3 150.26C479.933 150.82 481.8 151.59 483.9 152.57C486.047 153.55 487.843 154.647 489.29 155.86C490.737 157.073 491.927 158.59 492.86 160.41C493.84 162.183 494.657 164.47 495.31 167.27L484.11 171.54L477.11 168.04ZM470.04 194.08C468.173 194.08 466.68 193.52 465.56 192.4C464.44 191.28 463.623 189.67 463.11 187.57L452.75 191.49C453.823 196.11 455.597 199.563 458.07 201.85C460.543 204.09 463.88 205.21 468.08 205.21C468.453 205.21 468.827 205.21 469.2 205.21C469.573 205.21 469.947 205.187 470.32 205.14C475.92 204.673 480.26 202.807 483.34 199.54C486.467 196.273 488.03 191.887 488.03 186.38C488.03 182.46 486.933 179.427 484.74 177.28C482.547 175.133 479.233 173.453 474.8 172.24L469.2 170.7C467.52 170.233 466.4 169.557 465.84 168.67C465.327 167.783 465.07 166.733 465.07 165.52C465.07 164.307 465.537 163.257 466.47 162.37C467.403 161.483 468.64 160.97 470.18 160.83C470.367 160.83 470.53 160.83 470.67 160.83C470.857 160.783 471.043 160.76 471.23 160.76C472.957 160.76 474.31 161.25 475.29 162.23C476.317 163.163 477.087 164.797 477.6 167.13L487.47 163.35C486.49 158.917 484.81 155.627 482.43 153.48C480.097 151.287 476.877 150.19 472.77 150.19C472.397 150.19 472 150.19 471.58 150.19C471.207 150.19 470.833 150.213 470.46 150.26C467.193 150.54 464.323 151.45 461.85 152.99C459.377 154.53 457.44 156.513 456.04 158.94C454.64 161.367 453.94 164.073 453.94 167.06C453.94 171.167 454.85 174.433 456.67 176.86C458.537 179.287 461.827 181.107 466.54 182.32L470.88 183.44C472.653 183.907 474.053 184.513 475.08 185.26C476.107 186.007 476.62 187.243 476.62 188.97C476.62 192.003 474.683 193.707 470.81 194.08H470.04Z" fill="white"/>
</g>
<defs>
<filter id="filter0_d_21_28" x="0" y="-1" width="98" height="109" filterUnits="userSpaceOnUse" color-interpolation-filters="sRGB">
<feFlood flood-opacity="0" result="BackgroundImageFix"/>
<feColorMatrix in="SourceAlpha" type="matrix" values="0 0 0 0 0 0 0 0 0 0 0 0 0 0 0 0 0 0 127 0" result="hardAlpha"/>
<feOffset dy="4"/>
<feGaussianBlur stdDeviation="2.5"/>
<feComposite in2="hardAlpha" operator="out"/>
<feColorMatrix type="matrix" values="0 0 0 0 0 0 0 0 0 0 0 0 0 0 0 0 0 0 0.25 0"/>
<feBlend mode="normal" in2="BackgroundImageFix" result="effect1_dropShadow_21_28"/>
<feBlend mode="normal" in="SourceGraphic" in2="effect1_dropShadow_21_28" result="shape"/>
</filter>
<filter id="filter1_d_21_28" x="88" y="-1" width="98" height="109" filterUnits="userSpaceOnUse" color-interpolation-filters="sRGB">
<feFlood flood-opacity="0" result="BackgroundImageFix"/>
<feColorMatrix in="SourceAlpha" type="matrix" values="0 0 0 0 0 0 0 0 0 0 0 0 0 0 0 0 0 0 127 0" result="hardAlpha"/>
<feOffset dy="4"/>
<feGaussianBlur stdDeviation="2.5"/>
<feComposite in2="hardAlpha" operator="out"/>
<feColorMatrix type="matrix" values="0 0 0 0 0 0 0 0 0 0 0 0 0 0 0 0 0 0 0.25 0"/>
<feBlend mode="normal" in2="BackgroundImageFix" result="effect1_dropShadow_21_28"/>
<feBlend mode="normal" in="SourceGraphic" in2="effect1_dropShadow_21_28" result="shape"/>
</filter>
<filter id="filter2_d_21_28" x="176" y="-1" width="98" height="109" filterUnits="userSpaceOnUse" color-interpolation-filters="sRGB">
<feFlood flood-opacity="0" result="BackgroundImageFix"/>
<feColorMatrix in="SourceAlpha" type="matrix" values="0 0 0 0 0 0 0 0 0 0 0 0 0 0 0 0 0 0 127 0" result="hardAlpha"/>
<feOffset dy="4"/>
<feGaussianBlur stdDeviation="2.5"/>
<feComposite in2="hardAlpha" operator="out"/>
<feColorMatrix type="matrix" values="0 0 0 0 0 0 0 0 0 0 0 0 0 0 0 0 0 0 0.25 0"/>
<feBlend mode="normal" in2="BackgroundImageFix" result="effect1_dropShadow_21_28"/>
<feBlend mode="normal" in="SourceGraphic" in2="effect1_dropShadow_21_28" result="shape"/>
</filter>
<filter id="filter3_d_21_28" x="264" y="-1" width="98" height="109" filterUnits="userSpaceOnUse" color-interpolation-filters="sRGB">
<feFlood flood-opacity="0" result="BackgroundImageFix"/>
<feColorMatrix in="SourceAlpha" type="matrix" values="0 0 0 0 0 0 0 0 0 0 0 0 0 0 0 0 0 0 127 0" result="hardAlpha"/>
<feOffset dy="4"/>
<feGaussianBlur stdDeviation="2.5"/>
<feComposite in2="hardAlpha" operator="out"/>
<feColorMatrix type="matrix" values="0 0 0 0 0 0 0 0 0 0 0 0 0 0 0 0 0 0 0.25 0"/>
<feBlend mode="normal" in2="BackgroundImageFix" result="effect1_dropShadow_21_28"/>
<feBlend mode="normal" in="SourceGraphic" in2="effect1_dropShadow_21_28" result="shape"/>
</filter>
<filter id="filter4_d_21_28" x="352" y="-1" width="98" height="109" filterUnits="userSpaceOnUse" color-interpolation-filters="sRGB">
<feFlood flood-opacity="0" result="BackgroundImageFix"/>
<feColorMatrix in="SourceAlpha" type="matrix" values="0 0 0 0 0 0 0 0 0 0 0 0 0 0 0 0 0 0 127 0" result="hardAlpha"/>
<feOffset dy="4"/>
<feGaussianBlur stdDeviation="2.5"/>
<feComposite in2="hardAlpha" operator="out"/>
<feColorMatrix type="matrix" values="0 0 0 0 0 0 0 0 0 0 0 0 0 0 0 0 0 0 0.25 0"/>
<feBlend mode="normal" in2="BackgroundImageFix" result="effect1_dropShadow_21_28"/>
<feBlend mode="normal" in="SourceGraphic" in2="effect1_dropShadow_21_28" result="shape"/>
</filter>
<filter id="filter5_d_21_28" x="440" y="-1" width="98" height="109" filterUnits="userSpaceOnUse" color-interpolation-filters="sRGB">
<feFlood flood-opacity="0" result="BackgroundImageFix"/>
<feColorMatrix in="SourceAlpha" type="matrix" values="0 0 0 0 0 0 0 0 0 0 0 0 0 0 0 0 0 0 127 0" result="hardAlpha"/>
<feOffset dy="4"/>
<feGaussianBlur stdDeviation="2.5"/>
<feComposite in2="hardAlpha" operator="out"/>
<feColorMatrix type="matrix" values="0 0 0 0 0 0 0 0 0 0 0 0 0 0 0 0 0 0 0.25 0"/>
<feBlend mode="normal" in2="BackgroundImageFix" result="effect1_dropShadow_21_28"/>
<feBlend mode="normal" in="SourceGraphic" in2="effect1_dropShadow_21_28" result="shape"/>
</filter>
<filter id="filter6_d_21_28" x="528" y="-1" width="98" height="109" filterUnits="userSpaceOnUse" color-interpolation-filters="sRGB">
<feFlood flood-opacity="0" result="BackgroundImageFix"/>
<feColorMatrix in="SourceAlpha" type="matrix" values="0 0 0 0 0 0 0 0 0 0 0 0 0 0 0 0 0 0 127 0" result="hardAlpha"/>
<feOffset dy="4"/>
<feGaussianBlur stdDeviation="2.5"/>
<feComposite in2="hardAlpha" operator="out"/>
<feColorMatrix type="matrix" values="0 0 0 0 0 0 0 0 0 0 0 0 0 0 0 0 0 0 0.25 0"/>
<feBlend mode="normal" in2="BackgroundImageFix" result="effect1_dropShadow_21_28"/>
<feBlend mode="normal" in="SourceGraphic" in2="effect1_dropShadow_21_28" result="shape"/>
</filter>
<filter id="filter7_d_21_28" x="88" y="123" width="98" height="109" filterUnits="userSpaceOnUse" color-interpolation-filters="sRGB">
<feFlood flood-opacity="0" result="BackgroundImageFix"/>
<feColorMatrix in="SourceAlpha" type="matrix" values="0 0 0 0 0 0 0 0 0 0 0 0 0 0 0 0 0 0 127 0" result="hardAlpha"/>
<feOffset dy="4"/>
<feGaussianBlur stdDeviation="2.5"/>
<feComposite in2="hardAlpha" operator="out"/>
<feColorMatrix type="matrix" values="0 0 0 0 0 0 0 0 0 0 0 0 0 0 0 0 0 0 0.25 0"/>
<feBlend mode="normal" in2="BackgroundImageFix" result="effect1_dropShadow_21_28"/>
<feBlend mode="normal" in="SourceGraphic" in2="effect1_dropShadow_21_28" result="shape"/>
</filter>
<filter id="filter8_d_21_28" x="176" y="123" width="98" height="109" filterUnits="userSpaceOnUse" color-interpolation-filters="sRGB">
<feFlood flood-opacity="0" result="BackgroundImageFix"/>
<feColorMatrix in="SourceAlpha" type="matrix" values="0 0 0 0 0 0 0 0 0 0 0 0 0 0 0 0 0 0 127 0" result="hardAlpha"/>
<feOffset dy="4"/>
<feGaussianBlur stdDeviation="2.5"/>
<feComposite in2="hardAlpha" operator="out"/>
<feColorMatrix type="matrix" values="0 0 0 0 0 0 0 0 0 0 0 0 0 0 0 0 0 0 0.25 0"/>
<feBlend mode="normal" in2="BackgroundImageFix" result="effect1_dropShadow_21_28"/>
<feBlend mode="normal" in="SourceGraphic" in2="effect1_dropShadow_21_28" result="shape"/>
</filter>
<filter id="filter9_d_21_28" x="264" y="123" width="98" height="109" filterUnits="userSpaceOnUse" color-interpolation-filters="sRGB">
<feFlood flood-opacity="0" result="BackgroundImageFix"/>
<feColorMatrix in="SourceAlpha" type="matrix" values="0 0 0 0 0 0 0 0 0 0 0 0 0 0 0 0 0 0 127 0" result="hardAlpha"/>
<feOffset dy="4"/>
<feGaussianBlur stdDeviation="2.5"/>
<feComposite in2="hardAlpha" operator="out"/>
<feColorMatrix type="matrix" values="0 0 0 0 0 0 0 0 0 0 0 0 0 0 0 0 0 0 0.25 0"/>
<feBlend mode="normal" in2="BackgroundImageFix" result="effect1_dropShadow_21_28"/>
<feBlend mode="normal" in="SourceGraphic" in2="effect1_dropShadow_21_28" result="shape"/>
</filter>
<filter id="filter10_d_21_28" x="352" y="123" width="98" height="109" filterUnits="userSpaceOnUse" color-interpolation-filters="sRGB">
<feFlood flood-opacity="0" result="BackgroundImageFix"/>
<feColorMatrix in="SourceAlpha" type="matrix" values="0 0 0 0 0 0 0 0 0 0 0 0 0 0 0 0 0 0 127 0" result="hardAlpha"/>
<feOffset dy="4"/>
<feGaussianBlur stdDeviation="2.5"/>
<feComposite in2="hardAlpha" operator="out"/>
<feColorMatrix type="matrix" values="0 0 0 0 0 0 0 0 0 0 0 0 0 0 0 0 0 0 0.25 0"/>
<feBlend mode="normal" in2="BackgroundImageFix" result="effect1_dropShadow_21_28"/>
<feBlend mode="normal" in="SourceGraphic" in2="effect1_dropShadow_21_28" result="shape"/>
</filter>
<filter id="filter11_d_21_28" x="440" y="123" width="98" height="109" filterUnits="userSpaceOnUse" color-interpolation-filters="sRGB">
<feFlood flood-opacity="0" result="BackgroundImageFix"/>
<feColorMatrix in="SourceAlpha" type="matrix" values="0 0 0 0 0 0 0 0 0 0 0 0 0 0 0 0 0 0 127 0" result="hardAlpha"/>
<feOffset dy="4"/>
<feGaussianBlur stdDeviation="2.5"/>
<feComposite in2="hardAlpha" operator="out"/>
<feColorMatrix type="matrix" values="0 0 0 0 0 0 0 0 0 0 0 0 0 0 0 0 0 0 0.25 0"/>
<feBlend mode="normal" in2="BackgroundImageFix" result="effect1_dropShadow_21_28"/>
<feBlend mode="normal" in="SourceGraphic" in2="effect1_dropShadow_21_28" result="shape"/>
</filter>
</defs>
</svg>
